<svg width="20" height="18" viewBox="0 0 20 18" fill="none" xmlns="http://www.w3.org/2000/svg">
<path d="M4.48792 15.4512C4.48792 15.9126 4.62473 16.3636 4.88106 16.7472C5.13739 17.1308 5.50173 17.4298 5.92799 17.6064C6.35426 17.783 6.8233 17.8292 7.27582 17.7392C7.72834 17.6491 8.14401 17.427 8.47026 17.1007C8.7965 16.7745 9.01868 16.3588 9.10869 15.9063C9.19871 15.4538 9.15251 14.9847 8.97594 14.5585C8.79938 14.1322 8.50038 13.7679 8.11675 13.5115C7.73312 13.2552 7.2821 13.1184 6.82072 13.1184C6.20221 13.119 5.60923 13.365 5.17188 13.8023C4.73453 14.2397 4.48855 14.8327 4.48792 15.4512ZM7.71352 15.4512C7.71352 15.6278 7.66115 15.8004 7.56305 15.9472C7.46495 16.094 7.32551 16.2084 7.16238 16.276C6.99924 16.3436 6.81973 16.3613 6.64654 16.3268C6.47335 16.2924 6.31427 16.2073 6.18941 16.0825C6.06455 15.9576 5.97952 15.7985 5.94507 15.6254C5.91062 15.4522 5.9283 15.2727 5.99588 15.1095C6.06345 14.9464 6.17788 14.8069 6.3247 14.7088C6.47152 14.6107 6.64414 14.5584 6.82072 14.5584C7.0575 14.5584 7.28459 14.6524 7.45202 14.8199C7.61945 14.9873 7.71352 15.2144 7.71352 15.4512Z" fill="#00240F"/>
<path d="M13.6274 13.1184C13.166 13.1184 12.7149 13.2552 12.3313 13.5115C11.9477 13.7679 11.6487 14.1322 11.4721 14.5585C11.2956 14.9847 11.2494 15.4538 11.3394 15.9063C11.4294 16.3588 11.6516 16.7745 11.9778 17.1007C12.3041 17.427 12.7197 17.6491 13.1722 17.7392C13.6248 17.8292 14.0938 17.783 14.5201 17.6064C14.9463 17.4298 15.3107 17.1308 15.567 16.7472C15.8233 16.3636 15.9602 15.9126 15.9602 15.4512C15.9595 14.8327 15.7135 14.2397 15.2762 13.8023C14.8388 13.365 14.2459 13.119 13.6274 13.1184ZM13.6274 16.344C13.4508 16.344 13.2782 16.2916 13.1313 16.1935C12.9845 16.0954 12.8701 15.956 12.8025 15.7928C12.7349 15.6297 12.7173 15.4502 12.7517 15.277C12.7862 15.1038 12.8712 14.9447 12.996 14.8199C13.1209 14.695 13.28 14.61 13.4532 14.5755C13.6264 14.5411 13.8059 14.5588 13.969 14.6263C14.1322 14.6939 14.2716 14.8083 14.3697 14.9552C14.4678 15.102 14.5202 15.2746 14.5202 15.4512C14.5195 15.6875 14.4252 15.914 14.2578 16.0809C14.0904 16.2478 13.8637 16.3416 13.6274 16.3416V16.344Z" fill="#00240F"/>
<path d="M17.7936 5.34242C17.8177 5.23702 17.8178 5.12753 17.7939 5.02209C17.7699 4.91665 17.7225 4.81796 17.6552 4.73334C17.5879 4.64872 17.5024 4.58036 17.405 4.53332C17.3076 4.48628 17.2009 4.46177 17.0928 4.46162H4.99679L4.77839 3.37202C4.63007 2.61145 4.25373 1.91405 3.6994 1.37258C3.14507 0.831116 2.43903 0.471241 1.67518 0.340821L1.03438 0.228021C0.939308 0.207525 0.841064 0.206505 0.745583 0.225022C0.650101 0.243539 0.55936 0.281209 0.478837 0.335759C0.398314 0.390309 0.329678 0.460608 0.277071 0.542414C0.224463 0.624219 0.188976 0.715835 0.172749 0.811733C0.156523 0.907631 0.159894 1.00582 0.18266 1.10038C0.205425 1.19494 0.247113 1.28391 0.305207 1.36191C0.363301 1.43992 0.436598 1.50534 0.520672 1.55424C0.604747 1.60314 0.697858 1.6345 0.794385 1.64642L1.43518 1.75922C1.91238 1.84081 2.35345 2.06565 2.69983 2.40388C3.0462 2.7421 3.28147 3.1777 3.37439 3.65282L4.64158 9.99362C4.80448 10.8086 5.24435 11.5421 5.88654 12.0697C6.52873 12.5973 7.33368 12.8864 8.16479 12.888H13.188C14.0027 12.8907 14.794 12.6157 15.4314 12.1083C16.0688 11.6009 16.5143 10.8914 16.6944 10.0968L17.7936 5.34242ZM15.2928 9.77282C15.1841 10.2498 14.9166 10.6758 14.5343 10.981C14.1519 11.2862 13.6772 11.4525 13.188 11.4528H8.16479C7.66575 11.4532 7.18197 11.2809 6.79564 10.965C6.40931 10.6491 6.14428 10.2092 6.04558 9.72002L5.28479 5.89922H16.1856L15.2928 9.77282Z" fill="#00240F"/>
<circle cx="16.2" cy="4.99999" r="3.2" fill="#EC0000"/>
</svg>
